<svg xmlns="http://www.w3.org/2000/svg">
  <symbol id="icon-html-academy" viewBox="0 0 27 34" fill="currentColor">
    <path d="M13.64.02 13.5 0 0 1.4v24.61L13.5 34 27 26.01V1.41L13.64 0Zm11.6 25L13.5 31.96 1.77 25.02v-10.1l11.68 6.93.02 1.25-8.02-4.75v1.23l8.04 4.8.02 1.3-8.05-4.76v1.22l8.04 4.81 8.12-4.83V16.9l3.62-2.15v10.26Zm0-11.57L22 15.33l-1.48.88-7.06-4.19-.01 1.23 6.04 3.57-.06.03-.13.07-.86.5-4.98-2.95-.01 1.22 3.93 2.33-.93.61-.02.01-2.97-1.74-.01 1.23 1.94 1.13-1.98 1.19L1.8 13.58l11.63-6.96 11.8 6.83Zm0-1.22L13.43 5.3 1.77 12.22V2.99L13.5 1.76 25.23 3v9.24Z" />
  </symbol>

  <symbol id="icon-email" viewBox="0 0 19 14" fill="none">
    <path stroke="#222" stroke-width="1.3" d="M1.179 6v8M18.179 6v8M.529 13.35h18M.529 1.35h18M17.88 3.182 9.53 9.677 1.18 3.182V1.65h16.7v1.532Z" />
  </symbol>

  <symbol id="icon-tel" fill="none">
    <g clip-path="url(#a)" fill="#000">
        <path d="M17.9 9.4H9.4v1.2h8.5l-2.1 2.1.9.9 3.1-3.1a.75.75 0 0 0 0-.9l-3.1-3.1-.9.9 2.1 2ZM8.1 19.4v-6.2a.65.65 0 0 0-.6-.6H3.1a1.22 1.22 0 0 0 1.2 1.2h2.5v5H3.1a1.789 1.789 0 0 1-1.9-1.7v-14a1.77 1.77 0 0 1 1.7-1.8h3.9v5H4.4a1.22 1.22 0 0 0-1.2 1.2h4.4a.65.65 0 0 0 .6-.6V.6a.86.86 0 0 0-.7-.6H3.1A3 3 0 0 0 0 2.9v13.9a2.89 2.89 0 0 0 2.9 3.1h4.6a.5.5 0 0 0 .6-.5Z"/>
      </g>
      <defs>
      <clipPath id="a">
        <path fill="#fff" d="M0 0h20v20H0z"/>
      </clipPath>
      </defs>
    </symbol>
</svg>
